<mxfile host="Electron" agent="Mozilla/5.0 (Windows NT 10.0; Win64; x64) AppleWebKit/537.36 (KHTML, like Gecko) draw.io/28.1.2 Chrome/138.0.7204.243 Electron/37.4.0 Safari/537.36" version="28.1.2">
  <diagram name="PÃ¡gina-1" id="BQT2yiwdK8LnZgjhV-M0">
    <mxGraphModel dx="1026" dy="632" grid="1" gridSize="10" guides="1" tooltips="1" connect="1" arrows="1" fold="1" page="1" pageScale="1" pageWidth="1169" pageHeight="1654" math="0" shadow="0">
      <root>
        <mxCell id="0" />
        <mxCell id="1" parent="0" />
        <mxCell id="Cv5TzlRFSRvPYY0udDJQ-1" value="EMPLEADO" style="rounded=1;arcSize=10;whiteSpace=wrap;html=1;align=center;" vertex="1" parent="1">
          <mxGeometry x="140" y="160" width="100" height="40" as="geometry" />
        </mxCell>
        <mxCell id="Cv5TzlRFSRvPYY0udDJQ-2" value="DEPARTAMENTO" style="rounded=1;arcSize=10;whiteSpace=wrap;html=1;align=center;" vertex="1" parent="1">
          <mxGeometry x="390" y="160" width="110" height="40" as="geometry" />
        </mxCell>
        <mxCell id="Cv5TzlRFSRvPYY0udDJQ-3" value="PROYECTO" style="rounded=1;arcSize=10;whiteSpace=wrap;html=1;align=center;" vertex="1" parent="1">
          <mxGeometry x="660.5" y="160" width="100" height="40" as="geometry" />
        </mxCell>
        <mxCell id="Cv5TzlRFSRvPYY0udDJQ-4" value="ASIGNACION" style="rounded=1;arcSize=10;whiteSpace=wrap;html=1;align=center;" vertex="1" parent="1">
          <mxGeometry x="930" y="160" width="100" height="40" as="geometry" />
        </mxCell>
        <mxCell id="Cv5TzlRFSRvPYY0udDJQ-5" value="id_empleado PK" style="ellipse;whiteSpace=wrap;html=1;align=center;" vertex="1" parent="1">
          <mxGeometry x="60" y="110" width="100" height="40" as="geometry" />
        </mxCell>
        <mxCell id="Cv5TzlRFSRvPYY0udDJQ-7" value="nombre" style="ellipse;whiteSpace=wrap;html=1;align=center;" vertex="1" parent="1">
          <mxGeometry x="60" y="210" width="100" height="40" as="geometry" />
        </mxCell>
        <mxCell id="Cv5TzlRFSRvPYY0udDJQ-8" value="apellido" style="ellipse;whiteSpace=wrap;html=1;align=center;" vertex="1" parent="1">
          <mxGeometry x="200" y="210" width="100" height="40" as="geometry" />
        </mxCell>
        <mxCell id="Cv5TzlRFSRvPYY0udDJQ-9" value="cargo" style="ellipse;whiteSpace=wrap;html=1;align=center;" vertex="1" parent="1">
          <mxGeometry x="140" y="250" width="100" height="40" as="geometry" />
        </mxCell>
        <mxCell id="Cv5TzlRFSRvPYY0udDJQ-10" value="salario" style="ellipse;whiteSpace=wrap;html=1;align=center;" vertex="1" parent="1">
          <mxGeometry x="140" y="70" width="100" height="40" as="geometry" />
        </mxCell>
        <mxCell id="Cv5TzlRFSRvPYY0udDJQ-11" value="id_departamento FK" style="ellipse;whiteSpace=wrap;html=1;align=center;" vertex="1" parent="1">
          <mxGeometry x="200" y="105" width="100" height="50" as="geometry" />
        </mxCell>
        <mxCell id="Cv5TzlRFSRvPYY0udDJQ-13" value="id_departamento" style="ellipse;whiteSpace=wrap;html=1;align=center;" vertex="1" parent="1">
          <mxGeometry x="395" y="100" width="100" height="40" as="geometry" />
        </mxCell>
        <mxCell id="Cv5TzlRFSRvPYY0udDJQ-14" value="nombre" style="ellipse;whiteSpace=wrap;html=1;align=center;" vertex="1" parent="1">
          <mxGeometry x="340" y="220" width="100" height="40" as="geometry" />
        </mxCell>
        <mxCell id="Cv5TzlRFSRvPYY0udDJQ-15" value="ubicacion" style="ellipse;whiteSpace=wrap;html=1;align=center;" vertex="1" parent="1">
          <mxGeometry x="450" y="220" width="100" height="40" as="geometry" />
        </mxCell>
        <mxCell id="Cv5TzlRFSRvPYY0udDJQ-16" value="id_proyecto PK" style="ellipse;whiteSpace=wrap;html=1;align=center;" vertex="1" parent="1">
          <mxGeometry x="660.5" y="100" width="100" height="40" as="geometry" />
        </mxCell>
        <mxCell id="Cv5TzlRFSRvPYY0udDJQ-17" value="nombre" style="ellipse;whiteSpace=wrap;html=1;align=center;" vertex="1" parent="1">
          <mxGeometry x="600" y="220" width="100" height="40" as="geometry" />
        </mxCell>
        <mxCell id="Cv5TzlRFSRvPYY0udDJQ-18" value="presupuesto" style="ellipse;whiteSpace=wrap;html=1;align=center;" vertex="1" parent="1">
          <mxGeometry x="720" y="220" width="100" height="40" as="geometry" />
        </mxCell>
        <mxCell id="Cv5TzlRFSRvPYY0udDJQ-19" value="id_asignacion PK" style="ellipse;whiteSpace=wrap;html=1;align=center;" vertex="1" parent="1">
          <mxGeometry x="860" y="100" width="100" height="40" as="geometry" />
        </mxCell>
        <mxCell id="Cv5TzlRFSRvPYY0udDJQ-20" value="id_empleado FK" style="ellipse;whiteSpace=wrap;html=1;align=center;" vertex="1" parent="1">
          <mxGeometry x="1000" y="100" width="100" height="40" as="geometry" />
        </mxCell>
        <mxCell id="Cv5TzlRFSRvPYY0udDJQ-21" value="id_proyecto FK" style="ellipse;whiteSpace=wrap;html=1;align=center;" vertex="1" parent="1">
          <mxGeometry x="930" y="60" width="100" height="40" as="geometry" />
        </mxCell>
        <mxCell id="Cv5TzlRFSRvPYY0udDJQ-22" value="fecha_inicio" style="ellipse;whiteSpace=wrap;html=1;align=center;" vertex="1" parent="1">
          <mxGeometry x="860" y="220" width="100" height="40" as="geometry" />
        </mxCell>
        <mxCell id="Cv5TzlRFSRvPYY0udDJQ-23" value="fecha_fin" style="ellipse;whiteSpace=wrap;html=1;align=center;" vertex="1" parent="1">
          <mxGeometry x="1000" y="220" width="100" height="40" as="geometry" />
        </mxCell>
        <mxCell id="Cv5TzlRFSRvPYY0udDJQ-24" value="entra" style="shape=rhombus;perimeter=rhombusPerimeter;whiteSpace=wrap;html=1;align=center;" vertex="1" parent="1">
          <mxGeometry x="260" y="150" width="120" height="60" as="geometry" />
        </mxCell>
        <mxCell id="Cv5TzlRFSRvPYY0udDJQ-25" value="tienen" style="shape=rhombus;perimeter=rhombusPerimeter;whiteSpace=wrap;html=1;align=center;" vertex="1" parent="1">
          <mxGeometry x="520" y="150" width="120" height="60" as="geometry" />
        </mxCell>
        <mxCell id="Cv5TzlRFSRvPYY0udDJQ-26" value="hay" style="shape=rhombus;perimeter=rhombusPerimeter;whiteSpace=wrap;html=1;align=center;" vertex="1" parent="1">
          <mxGeometry x="790" y="150" width="120" height="60" as="geometry" />
        </mxCell>
        <mxCell id="Cv5TzlRFSRvPYY0udDJQ-27" value="" style="endArrow=none;html=1;rounded=0;" edge="1" parent="1" source="Cv5TzlRFSRvPYY0udDJQ-1" target="Cv5TzlRFSRvPYY0udDJQ-24">
          <mxGeometry relative="1" as="geometry">
            <mxPoint x="240" y="179.41" as="sourcePoint" />
            <mxPoint x="270" y="180" as="targetPoint" />
          </mxGeometry>
        </mxCell>
        <mxCell id="Cv5TzlRFSRvPYY0udDJQ-28" value="" style="endArrow=none;html=1;rounded=0;" edge="1" parent="1" source="Cv5TzlRFSRvPYY0udDJQ-24" target="Cv5TzlRFSRvPYY0udDJQ-2">
          <mxGeometry relative="1" as="geometry">
            <mxPoint x="380" y="179.41" as="sourcePoint" />
            <mxPoint x="540" y="179.41" as="targetPoint" />
          </mxGeometry>
        </mxCell>
        <mxCell id="Cv5TzlRFSRvPYY0udDJQ-29" value="" style="endArrow=none;html=1;rounded=0;" edge="1" parent="1" source="Cv5TzlRFSRvPYY0udDJQ-2" target="Cv5TzlRFSRvPYY0udDJQ-25">
          <mxGeometry relative="1" as="geometry">
            <mxPoint x="500.5" y="179.41" as="sourcePoint" />
            <mxPoint x="560" y="179" as="targetPoint" />
          </mxGeometry>
        </mxCell>
        <mxCell id="Cv5TzlRFSRvPYY0udDJQ-30" value="" style="endArrow=none;html=1;rounded=0;" edge="1" parent="1" source="Cv5TzlRFSRvPYY0udDJQ-25" target="Cv5TzlRFSRvPYY0udDJQ-3">
          <mxGeometry relative="1" as="geometry">
            <mxPoint x="610" y="150" as="sourcePoint" />
            <mxPoint x="770.4999999999998" y="150.44985748218525" as="targetPoint" />
          </mxGeometry>
        </mxCell>
        <mxCell id="Cv5TzlRFSRvPYY0udDJQ-31" value="" style="endArrow=none;html=1;rounded=0;" edge="1" parent="1" source="Cv5TzlRFSRvPYY0udDJQ-3" target="Cv5TzlRFSRvPYY0udDJQ-26">
          <mxGeometry relative="1" as="geometry">
            <mxPoint x="730" y="180" as="sourcePoint" />
            <mxPoint x="790.5" y="179.41" as="targetPoint" />
          </mxGeometry>
        </mxCell>
        <mxCell id="Cv5TzlRFSRvPYY0udDJQ-32" value="" style="endArrow=none;html=1;rounded=0;" edge="1" parent="1" source="Cv5TzlRFSRvPYY0udDJQ-26" target="Cv5TzlRFSRvPYY0udDJQ-4">
          <mxGeometry relative="1" as="geometry">
            <mxPoint x="750" y="320" as="sourcePoint" />
            <mxPoint x="910" y="320" as="targetPoint" />
          </mxGeometry>
        </mxCell>
        <mxCell id="Cv5TzlRFSRvPYY0udDJQ-34" value="" style="endArrow=none;html=1;rounded=0;" edge="1" parent="1" source="Cv5TzlRFSRvPYY0udDJQ-5" target="Cv5TzlRFSRvPYY0udDJQ-1">
          <mxGeometry relative="1" as="geometry">
            <mxPoint x="440" y="290" as="sourcePoint" />
            <mxPoint x="600" y="290" as="targetPoint" />
          </mxGeometry>
        </mxCell>
        <mxCell id="Cv5TzlRFSRvPYY0udDJQ-35" value="" style="endArrow=none;html=1;rounded=0;" edge="1" parent="1" source="Cv5TzlRFSRvPYY0udDJQ-11" target="Cv5TzlRFSRvPYY0udDJQ-1">
          <mxGeometry relative="1" as="geometry">
            <mxPoint x="440" y="290" as="sourcePoint" />
            <mxPoint x="600" y="290" as="targetPoint" />
          </mxGeometry>
        </mxCell>
        <mxCell id="Cv5TzlRFSRvPYY0udDJQ-36" value="" style="endArrow=none;html=1;rounded=0;" edge="1" parent="1" source="Cv5TzlRFSRvPYY0udDJQ-10" target="Cv5TzlRFSRvPYY0udDJQ-1">
          <mxGeometry relative="1" as="geometry">
            <mxPoint x="440" y="290" as="sourcePoint" />
            <mxPoint x="600" y="290" as="targetPoint" />
          </mxGeometry>
        </mxCell>
        <mxCell id="Cv5TzlRFSRvPYY0udDJQ-37" value="" style="endArrow=none;html=1;rounded=0;" edge="1" parent="1" source="Cv5TzlRFSRvPYY0udDJQ-7" target="Cv5TzlRFSRvPYY0udDJQ-1">
          <mxGeometry relative="1" as="geometry">
            <mxPoint x="440" y="290" as="sourcePoint" />
            <mxPoint x="600" y="290" as="targetPoint" />
          </mxGeometry>
        </mxCell>
        <mxCell id="Cv5TzlRFSRvPYY0udDJQ-38" value="" style="endArrow=none;html=1;rounded=0;" edge="1" parent="1" source="Cv5TzlRFSRvPYY0udDJQ-9" target="Cv5TzlRFSRvPYY0udDJQ-1">
          <mxGeometry relative="1" as="geometry">
            <mxPoint x="440" y="290" as="sourcePoint" />
            <mxPoint x="600" y="290" as="targetPoint" />
          </mxGeometry>
        </mxCell>
        <mxCell id="Cv5TzlRFSRvPYY0udDJQ-40" value="" style="endArrow=none;html=1;rounded=0;" edge="1" parent="1" source="Cv5TzlRFSRvPYY0udDJQ-1" target="Cv5TzlRFSRvPYY0udDJQ-8">
          <mxGeometry relative="1" as="geometry">
            <mxPoint x="440" y="290" as="sourcePoint" />
            <mxPoint x="600" y="290" as="targetPoint" />
          </mxGeometry>
        </mxCell>
        <mxCell id="Cv5TzlRFSRvPYY0udDJQ-41" value="" style="endArrow=none;html=1;rounded=0;" edge="1" parent="1" source="Cv5TzlRFSRvPYY0udDJQ-13" target="Cv5TzlRFSRvPYY0udDJQ-2">
          <mxGeometry relative="1" as="geometry">
            <mxPoint x="440" y="290" as="sourcePoint" />
            <mxPoint x="600" y="290" as="targetPoint" />
          </mxGeometry>
        </mxCell>
        <mxCell id="Cv5TzlRFSRvPYY0udDJQ-42" value="" style="endArrow=none;html=1;rounded=0;" edge="1" parent="1" source="Cv5TzlRFSRvPYY0udDJQ-14" target="Cv5TzlRFSRvPYY0udDJQ-2">
          <mxGeometry relative="1" as="geometry">
            <mxPoint x="440" y="290" as="sourcePoint" />
            <mxPoint x="600" y="290" as="targetPoint" />
          </mxGeometry>
        </mxCell>
        <mxCell id="Cv5TzlRFSRvPYY0udDJQ-43" value="" style="endArrow=none;html=1;rounded=0;" edge="1" parent="1" source="Cv5TzlRFSRvPYY0udDJQ-2" target="Cv5TzlRFSRvPYY0udDJQ-15">
          <mxGeometry relative="1" as="geometry">
            <mxPoint x="440" y="290" as="sourcePoint" />
            <mxPoint x="600" y="290" as="targetPoint" />
          </mxGeometry>
        </mxCell>
        <mxCell id="Cv5TzlRFSRvPYY0udDJQ-44" value="" style="endArrow=none;html=1;rounded=0;" edge="1" parent="1" source="Cv5TzlRFSRvPYY0udDJQ-16" target="Cv5TzlRFSRvPYY0udDJQ-3">
          <mxGeometry relative="1" as="geometry">
            <mxPoint x="440" y="290" as="sourcePoint" />
            <mxPoint x="600" y="290" as="targetPoint" />
          </mxGeometry>
        </mxCell>
        <mxCell id="Cv5TzlRFSRvPYY0udDJQ-45" value="" style="endArrow=none;html=1;rounded=0;" edge="1" parent="1" source="Cv5TzlRFSRvPYY0udDJQ-17" target="Cv5TzlRFSRvPYY0udDJQ-3">
          <mxGeometry relative="1" as="geometry">
            <mxPoint x="440" y="290" as="sourcePoint" />
            <mxPoint x="600" y="290" as="targetPoint" />
          </mxGeometry>
        </mxCell>
        <mxCell id="Cv5TzlRFSRvPYY0udDJQ-46" value="" style="endArrow=none;html=1;rounded=0;" edge="1" parent="1" source="Cv5TzlRFSRvPYY0udDJQ-3" target="Cv5TzlRFSRvPYY0udDJQ-18">
          <mxGeometry relative="1" as="geometry">
            <mxPoint x="440" y="290" as="sourcePoint" />
            <mxPoint x="600" y="290" as="targetPoint" />
          </mxGeometry>
        </mxCell>
        <mxCell id="Cv5TzlRFSRvPYY0udDJQ-47" value="" style="endArrow=none;html=1;rounded=0;" edge="1" parent="1" source="Cv5TzlRFSRvPYY0udDJQ-21" target="Cv5TzlRFSRvPYY0udDJQ-4">
          <mxGeometry relative="1" as="geometry">
            <mxPoint x="440" y="290" as="sourcePoint" />
            <mxPoint x="600" y="290" as="targetPoint" />
          </mxGeometry>
        </mxCell>
        <mxCell id="Cv5TzlRFSRvPYY0udDJQ-48" value="" style="endArrow=none;html=1;rounded=0;" edge="1" parent="1" source="Cv5TzlRFSRvPYY0udDJQ-4" target="Cv5TzlRFSRvPYY0udDJQ-19">
          <mxGeometry relative="1" as="geometry">
            <mxPoint x="440" y="290" as="sourcePoint" />
            <mxPoint x="600" y="290" as="targetPoint" />
          </mxGeometry>
        </mxCell>
        <mxCell id="Cv5TzlRFSRvPYY0udDJQ-49" value="" style="endArrow=none;html=1;rounded=0;" edge="1" parent="1" source="Cv5TzlRFSRvPYY0udDJQ-4" target="Cv5TzlRFSRvPYY0udDJQ-20">
          <mxGeometry relative="1" as="geometry">
            <mxPoint x="730" y="290" as="sourcePoint" />
            <mxPoint x="890" y="290" as="targetPoint" />
          </mxGeometry>
        </mxCell>
        <mxCell id="Cv5TzlRFSRvPYY0udDJQ-50" value="" style="endArrow=none;html=1;rounded=0;" edge="1" parent="1" source="Cv5TzlRFSRvPYY0udDJQ-22" target="Cv5TzlRFSRvPYY0udDJQ-4">
          <mxGeometry relative="1" as="geometry">
            <mxPoint x="730" y="290" as="sourcePoint" />
            <mxPoint x="890" y="290" as="targetPoint" />
          </mxGeometry>
        </mxCell>
        <mxCell id="Cv5TzlRFSRvPYY0udDJQ-51" value="" style="endArrow=none;html=1;rounded=0;" edge="1" parent="1" source="Cv5TzlRFSRvPYY0udDJQ-4" target="Cv5TzlRFSRvPYY0udDJQ-23">
          <mxGeometry relative="1" as="geometry">
            <mxPoint x="730" y="290" as="sourcePoint" />
            <mxPoint x="890" y="290" as="targetPoint" />
          </mxGeometry>
        </mxCell>
        <mxCell id="Cv5TzlRFSRvPYY0udDJQ-52" value="EMPLEADO" style="shape=table;startSize=30;container=1;collapsible=1;childLayout=tableLayout;fixedRows=1;rowLines=0;fontStyle=1;align=center;resizeLast=1;html=1;whiteSpace=wrap;" vertex="1" parent="1">
          <mxGeometry x="130" y="390" width="180" height="210" as="geometry" />
        </mxCell>
        <mxCell id="Cv5TzlRFSRvPYY0udDJQ-53" value="" style="shape=tableRow;horizontal=0;startSize=0;swimlaneHead=0;swimlaneBody=0;fillColor=none;collapsible=0;dropTarget=0;points=[[0,0.5],[1,0.5]];portConstraint=eastwest;top=0;left=0;right=0;bottom=0;html=1;" vertex="1" parent="Cv5TzlRFSRvPYY0udDJQ-52">
          <mxGeometry y="30" width="180" height="30" as="geometry" />
        </mxCell>
        <mxCell id="Cv5TzlRFSRvPYY0udDJQ-54" value="PK" style="shape=partialRectangle;connectable=0;fillColor=none;top=0;left=0;bottom=0;right=0;fontStyle=1;overflow=hidden;html=1;whiteSpace=wrap;" vertex="1" parent="Cv5TzlRFSRvPYY0udDJQ-53">
          <mxGeometry width="60" height="30" as="geometry">
            <mxRectangle width="60" height="30" as="alternateBounds" />
          </mxGeometry>
        </mxCell>
        <mxCell id="Cv5TzlRFSRvPYY0udDJQ-55" value="id_empleado" style="shape=partialRectangle;connectable=0;fillColor=none;top=0;left=0;bottom=0;right=0;align=left;spacingLeft=6;fontStyle=5;overflow=hidden;html=1;whiteSpace=wrap;" vertex="1" parent="Cv5TzlRFSRvPYY0udDJQ-53">
          <mxGeometry x="60" width="120" height="30" as="geometry">
            <mxRectangle width="120" height="30" as="alternateBounds" />
          </mxGeometry>
        </mxCell>
        <mxCell id="Cv5TzlRFSRvPYY0udDJQ-56" value="" style="shape=tableRow;horizontal=0;startSize=0;swimlaneHead=0;swimlaneBody=0;fillColor=none;collapsible=0;dropTarget=0;points=[[0,0.5],[1,0.5]];portConstraint=eastwest;top=0;left=0;right=0;bottom=1;html=1;" vertex="1" parent="Cv5TzlRFSRvPYY0udDJQ-52">
          <mxGeometry y="60" width="180" height="30" as="geometry" />
        </mxCell>
        <mxCell id="Cv5TzlRFSRvPYY0udDJQ-57" value="FK" style="shape=partialRectangle;connectable=0;fillColor=none;top=0;left=0;bottom=0;right=0;fontStyle=1;overflow=hidden;html=1;whiteSpace=wrap;" vertex="1" parent="Cv5TzlRFSRvPYY0udDJQ-56">
          <mxGeometry width="60" height="30" as="geometry">
            <mxRectangle width="60" height="30" as="alternateBounds" />
          </mxGeometry>
        </mxCell>
        <mxCell id="Cv5TzlRFSRvPYY0udDJQ-58" value="id_departamento" style="shape=partialRectangle;connectable=0;fillColor=none;top=0;left=0;bottom=0;right=0;align=left;spacingLeft=6;fontStyle=5;overflow=hidden;html=1;whiteSpace=wrap;" vertex="1" parent="Cv5TzlRFSRvPYY0udDJQ-56">
          <mxGeometry x="60" width="120" height="30" as="geometry">
            <mxRectangle width="120" height="30" as="alternateBounds" />
          </mxGeometry>
        </mxCell>
        <mxCell id="Cv5TzlRFSRvPYY0udDJQ-59" value="" style="shape=tableRow;horizontal=0;startSize=0;swimlaneHead=0;swimlaneBody=0;fillColor=none;collapsible=0;dropTarget=0;points=[[0,0.5],[1,0.5]];portConstraint=eastwest;top=0;left=0;right=0;bottom=0;html=1;" vertex="1" parent="Cv5TzlRFSRvPYY0udDJQ-52">
          <mxGeometry y="90" width="180" height="30" as="geometry" />
        </mxCell>
        <mxCell id="Cv5TzlRFSRvPYY0udDJQ-60" value="" style="shape=partialRectangle;connectable=0;fillColor=none;top=0;left=0;bottom=0;right=0;editable=1;overflow=hidden;html=1;whiteSpace=wrap;" vertex="1" parent="Cv5TzlRFSRvPYY0udDJQ-59">
          <mxGeometry width="60" height="30" as="geometry">
            <mxRectangle width="60" height="30" as="alternateBounds" />
          </mxGeometry>
        </mxCell>
        <mxCell id="Cv5TzlRFSRvPYY0udDJQ-61" value="nombre" style="shape=partialRectangle;connectable=0;fillColor=none;top=0;left=0;bottom=0;right=0;align=left;spacingLeft=6;overflow=hidden;html=1;whiteSpace=wrap;" vertex="1" parent="Cv5TzlRFSRvPYY0udDJQ-59">
          <mxGeometry x="60" width="120" height="30" as="geometry">
            <mxRectangle width="120" height="30" as="alternateBounds" />
          </mxGeometry>
        </mxCell>
        <mxCell id="Cv5TzlRFSRvPYY0udDJQ-62" value="" style="shape=tableRow;horizontal=0;startSize=0;swimlaneHead=0;swimlaneBody=0;fillColor=none;collapsible=0;dropTarget=0;points=[[0,0.5],[1,0.5]];portConstraint=eastwest;top=0;left=0;right=0;bottom=0;html=1;" vertex="1" parent="Cv5TzlRFSRvPYY0udDJQ-52">
          <mxGeometry y="120" width="180" height="30" as="geometry" />
        </mxCell>
        <mxCell id="Cv5TzlRFSRvPYY0udDJQ-63" value="" style="shape=partialRectangle;connectable=0;fillColor=none;top=0;left=0;bottom=0;right=0;editable=1;overflow=hidden;html=1;whiteSpace=wrap;" vertex="1" parent="Cv5TzlRFSRvPYY0udDJQ-62">
          <mxGeometry width="60" height="30" as="geometry">
            <mxRectangle width="60" height="30" as="alternateBounds" />
          </mxGeometry>
        </mxCell>
        <mxCell id="Cv5TzlRFSRvPYY0udDJQ-64" value="apellido" style="shape=partialRectangle;connectable=0;fillColor=none;top=0;left=0;bottom=0;right=0;align=left;spacingLeft=6;overflow=hidden;html=1;whiteSpace=wrap;" vertex="1" parent="Cv5TzlRFSRvPYY0udDJQ-62">
          <mxGeometry x="60" width="120" height="30" as="geometry">
            <mxRectangle width="120" height="30" as="alternateBounds" />
          </mxGeometry>
        </mxCell>
        <mxCell id="Cv5TzlRFSRvPYY0udDJQ-65" value="" style="shape=tableRow;horizontal=0;startSize=0;swimlaneHead=0;swimlaneBody=0;fillColor=none;collapsible=0;dropTarget=0;points=[[0,0.5],[1,0.5]];portConstraint=eastwest;top=0;left=0;right=0;bottom=0;html=1;" vertex="1" parent="Cv5TzlRFSRvPYY0udDJQ-52">
          <mxGeometry y="150" width="180" height="30" as="geometry" />
        </mxCell>
        <mxCell id="Cv5TzlRFSRvPYY0udDJQ-66" value="" style="shape=partialRectangle;connectable=0;fillColor=none;top=0;left=0;bottom=0;right=0;editable=1;overflow=hidden;html=1;whiteSpace=wrap;" vertex="1" parent="Cv5TzlRFSRvPYY0udDJQ-65">
          <mxGeometry width="60" height="30" as="geometry">
            <mxRectangle width="60" height="30" as="alternateBounds" />
          </mxGeometry>
        </mxCell>
        <mxCell id="Cv5TzlRFSRvPYY0udDJQ-67" value="cargo" style="shape=partialRectangle;connectable=0;fillColor=none;top=0;left=0;bottom=0;right=0;align=left;spacingLeft=6;overflow=hidden;html=1;whiteSpace=wrap;" vertex="1" parent="Cv5TzlRFSRvPYY0udDJQ-65">
          <mxGeometry x="60" width="120" height="30" as="geometry">
            <mxRectangle width="120" height="30" as="alternateBounds" />
          </mxGeometry>
        </mxCell>
        <mxCell id="Cv5TzlRFSRvPYY0udDJQ-68" value="" style="shape=tableRow;horizontal=0;startSize=0;swimlaneHead=0;swimlaneBody=0;fillColor=none;collapsible=0;dropTarget=0;points=[[0,0.5],[1,0.5]];portConstraint=eastwest;top=0;left=0;right=0;bottom=0;html=1;" vertex="1" parent="Cv5TzlRFSRvPYY0udDJQ-52">
          <mxGeometry y="180" width="180" height="30" as="geometry" />
        </mxCell>
        <mxCell id="Cv5TzlRFSRvPYY0udDJQ-69" value="" style="shape=partialRectangle;connectable=0;fillColor=none;top=0;left=0;bottom=0;right=0;editable=1;overflow=hidden;html=1;whiteSpace=wrap;" vertex="1" parent="Cv5TzlRFSRvPYY0udDJQ-68">
          <mxGeometry width="60" height="30" as="geometry">
            <mxRectangle width="60" height="30" as="alternateBounds" />
          </mxGeometry>
        </mxCell>
        <mxCell id="Cv5TzlRFSRvPYY0udDJQ-70" value="salario" style="shape=partialRectangle;connectable=0;fillColor=none;top=0;left=0;bottom=0;right=0;align=left;spacingLeft=6;overflow=hidden;html=1;whiteSpace=wrap;" vertex="1" parent="Cv5TzlRFSRvPYY0udDJQ-68">
          <mxGeometry x="60" width="120" height="30" as="geometry">
            <mxRectangle width="120" height="30" as="alternateBounds" />
          </mxGeometry>
        </mxCell>
        <mxCell id="Cv5TzlRFSRvPYY0udDJQ-71" value="DEPARTAMENTO" style="shape=table;startSize=30;container=1;collapsible=1;childLayout=tableLayout;fixedRows=1;rowLines=0;fontStyle=1;align=center;resizeLast=1;html=1;" vertex="1" parent="1">
          <mxGeometry x="130" y="670" width="180" height="120" as="geometry" />
        </mxCell>
        <mxCell id="Cv5TzlRFSRvPYY0udDJQ-72" value="" style="shape=tableRow;horizontal=0;startSize=0;swimlaneHead=0;swimlaneBody=0;fillColor=none;collapsible=0;dropTarget=0;points=[[0,0.5],[1,0.5]];portConstraint=eastwest;top=0;left=0;right=0;bottom=1;" vertex="1" parent="Cv5TzlRFSRvPYY0udDJQ-71">
          <mxGeometry y="30" width="180" height="30" as="geometry" />
        </mxCell>
        <mxCell id="Cv5TzlRFSRvPYY0udDJQ-73" value="PK" style="shape=partialRectangle;connectable=0;fillColor=none;top=0;left=0;bottom=0;right=0;fontStyle=1;overflow=hidden;whiteSpace=wrap;html=1;" vertex="1" parent="Cv5TzlRFSRvPYY0udDJQ-72">
          <mxGeometry width="30" height="30" as="geometry">
            <mxRectangle width="30" height="30" as="alternateBounds" />
          </mxGeometry>
        </mxCell>
        <mxCell id="Cv5TzlRFSRvPYY0udDJQ-74" value="id_departamento" style="shape=partialRectangle;connectable=0;fillColor=none;top=0;left=0;bottom=0;right=0;align=left;spacingLeft=6;fontStyle=5;overflow=hidden;whiteSpace=wrap;html=1;" vertex="1" parent="Cv5TzlRFSRvPYY0udDJQ-72">
          <mxGeometry x="30" width="150" height="30" as="geometry">
            <mxRectangle width="150" height="30" as="alternateBounds" />
          </mxGeometry>
        </mxCell>
        <mxCell id="Cv5TzlRFSRvPYY0udDJQ-75" value="" style="shape=tableRow;horizontal=0;startSize=0;swimlaneHead=0;swimlaneBody=0;fillColor=none;collapsible=0;dropTarget=0;points=[[0,0.5],[1,0.5]];portConstraint=eastwest;top=0;left=0;right=0;bottom=0;" vertex="1" parent="Cv5TzlRFSRvPYY0udDJQ-71">
          <mxGeometry y="60" width="180" height="30" as="geometry" />
        </mxCell>
        <mxCell id="Cv5TzlRFSRvPYY0udDJQ-76" value="" style="shape=partialRectangle;connectable=0;fillColor=none;top=0;left=0;bottom=0;right=0;editable=1;overflow=hidden;whiteSpace=wrap;html=1;" vertex="1" parent="Cv5TzlRFSRvPYY0udDJQ-75">
          <mxGeometry width="30" height="30" as="geometry">
            <mxRectangle width="30" height="30" as="alternateBounds" />
          </mxGeometry>
        </mxCell>
        <mxCell id="Cv5TzlRFSRvPYY0udDJQ-77" value="nombre" style="shape=partialRectangle;connectable=0;fillColor=none;top=0;left=0;bottom=0;right=0;align=left;spacingLeft=6;overflow=hidden;whiteSpace=wrap;html=1;" vertex="1" parent="Cv5TzlRFSRvPYY0udDJQ-75">
          <mxGeometry x="30" width="150" height="30" as="geometry">
            <mxRectangle width="150" height="30" as="alternateBounds" />
          </mxGeometry>
        </mxCell>
        <mxCell id="Cv5TzlRFSRvPYY0udDJQ-78" value="" style="shape=tableRow;horizontal=0;startSize=0;swimlaneHead=0;swimlaneBody=0;fillColor=none;collapsible=0;dropTarget=0;points=[[0,0.5],[1,0.5]];portConstraint=eastwest;top=0;left=0;right=0;bottom=0;" vertex="1" parent="Cv5TzlRFSRvPYY0udDJQ-71">
          <mxGeometry y="90" width="180" height="30" as="geometry" />
        </mxCell>
        <mxCell id="Cv5TzlRFSRvPYY0udDJQ-79" value="" style="shape=partialRectangle;connectable=0;fillColor=none;top=0;left=0;bottom=0;right=0;editable=1;overflow=hidden;whiteSpace=wrap;html=1;" vertex="1" parent="Cv5TzlRFSRvPYY0udDJQ-78">
          <mxGeometry width="30" height="30" as="geometry">
            <mxRectangle width="30" height="30" as="alternateBounds" />
          </mxGeometry>
        </mxCell>
        <mxCell id="Cv5TzlRFSRvPYY0udDJQ-80" value="ubicacion" style="shape=partialRectangle;connectable=0;fillColor=none;top=0;left=0;bottom=0;right=0;align=left;spacingLeft=6;overflow=hidden;whiteSpace=wrap;html=1;" vertex="1" parent="Cv5TzlRFSRvPYY0udDJQ-78">
          <mxGeometry x="30" width="150" height="30" as="geometry">
            <mxRectangle width="150" height="30" as="alternateBounds" />
          </mxGeometry>
        </mxCell>
        <mxCell id="Cv5TzlRFSRvPYY0udDJQ-84" value="PROYECTO" style="shape=table;startSize=30;container=1;collapsible=1;childLayout=tableLayout;fixedRows=1;rowLines=0;fontStyle=1;align=center;resizeLast=1;html=1;" vertex="1" parent="1">
          <mxGeometry x="720" y="390" width="180" height="120" as="geometry" />
        </mxCell>
        <mxCell id="Cv5TzlRFSRvPYY0udDJQ-85" value="" style="shape=tableRow;horizontal=0;startSize=0;swimlaneHead=0;swimlaneBody=0;fillColor=none;collapsible=0;dropTarget=0;points=[[0,0.5],[1,0.5]];portConstraint=eastwest;top=0;left=0;right=0;bottom=1;" vertex="1" parent="Cv5TzlRFSRvPYY0udDJQ-84">
          <mxGeometry y="30" width="180" height="30" as="geometry" />
        </mxCell>
        <mxCell id="Cv5TzlRFSRvPYY0udDJQ-86" value="PK" style="shape=partialRectangle;connectable=0;fillColor=none;top=0;left=0;bottom=0;right=0;fontStyle=1;overflow=hidden;whiteSpace=wrap;html=1;" vertex="1" parent="Cv5TzlRFSRvPYY0udDJQ-85">
          <mxGeometry width="30" height="30" as="geometry">
            <mxRectangle width="30" height="30" as="alternateBounds" />
          </mxGeometry>
        </mxCell>
        <mxCell id="Cv5TzlRFSRvPYY0udDJQ-87" value="id_proyecto" style="shape=partialRectangle;connectable=0;fillColor=none;top=0;left=0;bottom=0;right=0;align=left;spacingLeft=6;fontStyle=5;overflow=hidden;whiteSpace=wrap;html=1;" vertex="1" parent="Cv5TzlRFSRvPYY0udDJQ-85">
          <mxGeometry x="30" width="150" height="30" as="geometry">
            <mxRectangle width="150" height="30" as="alternateBounds" />
          </mxGeometry>
        </mxCell>
        <mxCell id="Cv5TzlRFSRvPYY0udDJQ-88" value="" style="shape=tableRow;horizontal=0;startSize=0;swimlaneHead=0;swimlaneBody=0;fillColor=none;collapsible=0;dropTarget=0;points=[[0,0.5],[1,0.5]];portConstraint=eastwest;top=0;left=0;right=0;bottom=0;" vertex="1" parent="Cv5TzlRFSRvPYY0udDJQ-84">
          <mxGeometry y="60" width="180" height="30" as="geometry" />
        </mxCell>
        <mxCell id="Cv5TzlRFSRvPYY0udDJQ-89" value="" style="shape=partialRectangle;connectable=0;fillColor=none;top=0;left=0;bottom=0;right=0;editable=1;overflow=hidden;whiteSpace=wrap;html=1;" vertex="1" parent="Cv5TzlRFSRvPYY0udDJQ-88">
          <mxGeometry width="30" height="30" as="geometry">
            <mxRectangle width="30" height="30" as="alternateBounds" />
          </mxGeometry>
        </mxCell>
        <mxCell id="Cv5TzlRFSRvPYY0udDJQ-90" value="nombre" style="shape=partialRectangle;connectable=0;fillColor=none;top=0;left=0;bottom=0;right=0;align=left;spacingLeft=6;overflow=hidden;whiteSpace=wrap;html=1;" vertex="1" parent="Cv5TzlRFSRvPYY0udDJQ-88">
          <mxGeometry x="30" width="150" height="30" as="geometry">
            <mxRectangle width="150" height="30" as="alternateBounds" />
          </mxGeometry>
        </mxCell>
        <mxCell id="Cv5TzlRFSRvPYY0udDJQ-91" value="" style="shape=tableRow;horizontal=0;startSize=0;swimlaneHead=0;swimlaneBody=0;fillColor=none;collapsible=0;dropTarget=0;points=[[0,0.5],[1,0.5]];portConstraint=eastwest;top=0;left=0;right=0;bottom=0;" vertex="1" parent="Cv5TzlRFSRvPYY0udDJQ-84">
          <mxGeometry y="90" width="180" height="30" as="geometry" />
        </mxCell>
        <mxCell id="Cv5TzlRFSRvPYY0udDJQ-92" value="" style="shape=partialRectangle;connectable=0;fillColor=none;top=0;left=0;bottom=0;right=0;editable=1;overflow=hidden;whiteSpace=wrap;html=1;" vertex="1" parent="Cv5TzlRFSRvPYY0udDJQ-91">
          <mxGeometry width="30" height="30" as="geometry">
            <mxRectangle width="30" height="30" as="alternateBounds" />
          </mxGeometry>
        </mxCell>
        <mxCell id="Cv5TzlRFSRvPYY0udDJQ-93" value="presupuesto" style="shape=partialRectangle;connectable=0;fillColor=none;top=0;left=0;bottom=0;right=0;align=left;spacingLeft=6;overflow=hidden;whiteSpace=wrap;html=1;" vertex="1" parent="Cv5TzlRFSRvPYY0udDJQ-91">
          <mxGeometry x="30" width="150" height="30" as="geometry">
            <mxRectangle width="150" height="30" as="alternateBounds" />
          </mxGeometry>
        </mxCell>
        <mxCell id="Cv5TzlRFSRvPYY0udDJQ-97" value="ASIGNACION" style="shape=table;startSize=30;container=1;collapsible=1;childLayout=tableLayout;fixedRows=1;rowLines=0;fontStyle=1;align=center;resizeLast=1;html=1;whiteSpace=wrap;" vertex="1" parent="1">
          <mxGeometry x="440" y="390" width="180" height="180" as="geometry" />
        </mxCell>
        <mxCell id="Cv5TzlRFSRvPYY0udDJQ-110" value="" style="shape=tableRow;horizontal=0;startSize=0;swimlaneHead=0;swimlaneBody=0;fillColor=none;collapsible=0;dropTarget=0;points=[[0,0.5],[1,0.5]];portConstraint=eastwest;top=0;left=0;right=0;bottom=1;html=1;" vertex="1" parent="Cv5TzlRFSRvPYY0udDJQ-97">
          <mxGeometry y="30" width="180" height="30" as="geometry" />
        </mxCell>
        <mxCell id="Cv5TzlRFSRvPYY0udDJQ-111" value="PK" style="shape=partialRectangle;connectable=0;fillColor=none;top=0;left=0;bottom=0;right=0;fontStyle=1;overflow=hidden;html=1;whiteSpace=wrap;" vertex="1" parent="Cv5TzlRFSRvPYY0udDJQ-110">
          <mxGeometry width="60" height="30" as="geometry">
            <mxRectangle width="60" height="30" as="alternateBounds" />
          </mxGeometry>
        </mxCell>
        <mxCell id="Cv5TzlRFSRvPYY0udDJQ-112" value="id_asignacion" style="shape=partialRectangle;connectable=0;fillColor=none;top=0;left=0;bottom=0;right=0;align=left;spacingLeft=6;fontStyle=5;overflow=hidden;html=1;whiteSpace=wrap;" vertex="1" parent="Cv5TzlRFSRvPYY0udDJQ-110">
          <mxGeometry x="60" width="120" height="30" as="geometry">
            <mxRectangle width="120" height="30" as="alternateBounds" />
          </mxGeometry>
        </mxCell>
        <mxCell id="Cv5TzlRFSRvPYY0udDJQ-98" value="" style="shape=tableRow;horizontal=0;startSize=0;swimlaneHead=0;swimlaneBody=0;fillColor=none;collapsible=0;dropTarget=0;points=[[0,0.5],[1,0.5]];portConstraint=eastwest;top=0;left=0;right=0;bottom=0;html=1;" vertex="1" parent="Cv5TzlRFSRvPYY0udDJQ-97">
          <mxGeometry y="60" width="180" height="30" as="geometry" />
        </mxCell>
        <mxCell id="Cv5TzlRFSRvPYY0udDJQ-99" value="FK" style="shape=partialRectangle;connectable=0;fillColor=none;top=0;left=0;bottom=0;right=0;fontStyle=1;overflow=hidden;html=1;whiteSpace=wrap;" vertex="1" parent="Cv5TzlRFSRvPYY0udDJQ-98">
          <mxGeometry width="60" height="30" as="geometry">
            <mxRectangle width="60" height="30" as="alternateBounds" />
          </mxGeometry>
        </mxCell>
        <mxCell id="Cv5TzlRFSRvPYY0udDJQ-100" value="id_proyecto" style="shape=partialRectangle;connectable=0;fillColor=none;top=0;left=0;bottom=0;right=0;align=left;spacingLeft=6;fontStyle=5;overflow=hidden;html=1;whiteSpace=wrap;" vertex="1" parent="Cv5TzlRFSRvPYY0udDJQ-98">
          <mxGeometry x="60" width="120" height="30" as="geometry">
            <mxRectangle width="120" height="30" as="alternateBounds" />
          </mxGeometry>
        </mxCell>
        <mxCell id="Cv5TzlRFSRvPYY0udDJQ-101" value="" style="shape=tableRow;horizontal=0;startSize=0;swimlaneHead=0;swimlaneBody=0;fillColor=none;collapsible=0;dropTarget=0;points=[[0,0.5],[1,0.5]];portConstraint=eastwest;top=0;left=0;right=0;bottom=1;html=1;" vertex="1" parent="Cv5TzlRFSRvPYY0udDJQ-97">
          <mxGeometry y="90" width="180" height="30" as="geometry" />
        </mxCell>
        <mxCell id="Cv5TzlRFSRvPYY0udDJQ-102" value="FK" style="shape=partialRectangle;connectable=0;fillColor=none;top=0;left=0;bottom=0;right=0;fontStyle=1;overflow=hidden;html=1;whiteSpace=wrap;" vertex="1" parent="Cv5TzlRFSRvPYY0udDJQ-101">
          <mxGeometry width="60" height="30" as="geometry">
            <mxRectangle width="60" height="30" as="alternateBounds" />
          </mxGeometry>
        </mxCell>
        <mxCell id="Cv5TzlRFSRvPYY0udDJQ-103" value="id_empleado" style="shape=partialRectangle;connectable=0;fillColor=none;top=0;left=0;bottom=0;right=0;align=left;spacingLeft=6;fontStyle=5;overflow=hidden;html=1;whiteSpace=wrap;" vertex="1" parent="Cv5TzlRFSRvPYY0udDJQ-101">
          <mxGeometry x="60" width="120" height="30" as="geometry">
            <mxRectangle width="120" height="30" as="alternateBounds" />
          </mxGeometry>
        </mxCell>
        <mxCell id="Cv5TzlRFSRvPYY0udDJQ-104" value="" style="shape=tableRow;horizontal=0;startSize=0;swimlaneHead=0;swimlaneBody=0;fillColor=none;collapsible=0;dropTarget=0;points=[[0,0.5],[1,0.5]];portConstraint=eastwest;top=0;left=0;right=0;bottom=0;html=1;" vertex="1" parent="Cv5TzlRFSRvPYY0udDJQ-97">
          <mxGeometry y="120" width="180" height="30" as="geometry" />
        </mxCell>
        <mxCell id="Cv5TzlRFSRvPYY0udDJQ-105" value="" style="shape=partialRectangle;connectable=0;fillColor=none;top=0;left=0;bottom=0;right=0;editable=1;overflow=hidden;html=1;whiteSpace=wrap;" vertex="1" parent="Cv5TzlRFSRvPYY0udDJQ-104">
          <mxGeometry width="60" height="30" as="geometry">
            <mxRectangle width="60" height="30" as="alternateBounds" />
          </mxGeometry>
        </mxCell>
        <mxCell id="Cv5TzlRFSRvPYY0udDJQ-106" value="fecha_inicio" style="shape=partialRectangle;connectable=0;fillColor=none;top=0;left=0;bottom=0;right=0;align=left;spacingLeft=6;overflow=hidden;html=1;whiteSpace=wrap;" vertex="1" parent="Cv5TzlRFSRvPYY0udDJQ-104">
          <mxGeometry x="60" width="120" height="30" as="geometry">
            <mxRectangle width="120" height="30" as="alternateBounds" />
          </mxGeometry>
        </mxCell>
        <mxCell id="Cv5TzlRFSRvPYY0udDJQ-107" value="" style="shape=tableRow;horizontal=0;startSize=0;swimlaneHead=0;swimlaneBody=0;fillColor=none;collapsible=0;dropTarget=0;points=[[0,0.5],[1,0.5]];portConstraint=eastwest;top=0;left=0;right=0;bottom=0;html=1;" vertex="1" parent="Cv5TzlRFSRvPYY0udDJQ-97">
          <mxGeometry y="150" width="180" height="30" as="geometry" />
        </mxCell>
        <mxCell id="Cv5TzlRFSRvPYY0udDJQ-108" value="" style="shape=partialRectangle;connectable=0;fillColor=none;top=0;left=0;bottom=0;right=0;editable=1;overflow=hidden;html=1;whiteSpace=wrap;" vertex="1" parent="Cv5TzlRFSRvPYY0udDJQ-107">
          <mxGeometry width="60" height="30" as="geometry">
            <mxRectangle width="60" height="30" as="alternateBounds" />
          </mxGeometry>
        </mxCell>
        <mxCell id="Cv5TzlRFSRvPYY0udDJQ-109" value="fecha_fin" style="shape=partialRectangle;connectable=0;fillColor=none;top=0;left=0;bottom=0;right=0;align=left;spacingLeft=6;overflow=hidden;html=1;whiteSpace=wrap;" vertex="1" parent="Cv5TzlRFSRvPYY0udDJQ-107">
          <mxGeometry x="60" width="120" height="30" as="geometry">
            <mxRectangle width="120" height="30" as="alternateBounds" />
          </mxGeometry>
        </mxCell>
        <mxCell id="Cv5TzlRFSRvPYY0udDJQ-113" value="" style="edgeStyle=entityRelationEdgeStyle;fontSize=12;html=1;endArrow=ERmandOne;startArrow=ERmandOne;rounded=0;" edge="1" parent="1" source="Cv5TzlRFSRvPYY0udDJQ-56" target="Cv5TzlRFSRvPYY0udDJQ-72">
          <mxGeometry width="100" height="100" relative="1" as="geometry">
            <mxPoint x="420" y="480" as="sourcePoint" />
            <mxPoint x="520" y="380" as="targetPoint" />
          </mxGeometry>
        </mxCell>
        <mxCell id="Cv5TzlRFSRvPYY0udDJQ-114" value="" style="edgeStyle=entityRelationEdgeStyle;fontSize=12;html=1;endArrow=ERmandOne;startArrow=ERmandOne;rounded=0;" edge="1" parent="1" source="Cv5TzlRFSRvPYY0udDJQ-53" target="Cv5TzlRFSRvPYY0udDJQ-101">
          <mxGeometry width="100" height="100" relative="1" as="geometry">
            <mxPoint x="370" y="650" as="sourcePoint" />
            <mxPoint x="470" y="550" as="targetPoint" />
          </mxGeometry>
        </mxCell>
        <mxCell id="Cv5TzlRFSRvPYY0udDJQ-115" value="" style="edgeStyle=entityRelationEdgeStyle;fontSize=12;html=1;endArrow=ERmandOne;startArrow=ERmandOne;rounded=0;" edge="1" parent="1" source="Cv5TzlRFSRvPYY0udDJQ-98" target="Cv5TzlRFSRvPYY0udDJQ-85">
          <mxGeometry width="100" height="100" relative="1" as="geometry">
            <mxPoint x="370" y="650" as="sourcePoint" />
            <mxPoint x="470" y="550" as="targetPoint" />
          </mxGeometry>
        </mxCell>
      </root>
    </mxGraphModel>
  </diagram>
</mxfile>
